<svg xmlns="http://www.w3.org/2000/svg" viewBox="0 0 64 64" fill="none">
  <path d="M32 6C22.6 6 15 13.6 15 23c0 7.2 4.4 13.4 10.6 16.1V44h13V39.1C44.6 36.4 49 30.2 49 23 49 13.6 41.4 6 32 6Z" stroke="#7eb8e8" stroke-width="2.5" fill="rgba(255,255,255,0.15)"/>
  <path d="M24 48h16v4a4 4 0 0 1-4 4h-8a4 4 0 0 1-4-4v-4Z" stroke="#7eb8e8" stroke-width="2.5" fill="rgba(255,255,255,0.1)"/>
  <path d="M32 2v4M12 23H8M56 23h-4M18.3 10.3l-2.8-2.8M48.5 10.3l2.8-2.8" stroke="#7eb8e8" stroke-width="2" stroke-linecap="round"/>
</svg>
